# xmcd CD database file
#
# Track frame offsets:
#	150
#	56087
#	91323
#	112130
#	173101
#	226497
#	261786
#
# Disc length: 4423 seconds
#
# Revision: 0
# Processed by: cddbd v1.5.1PL0 Copyright (c) Steve Scherf et al.
# Submitted via: CDex 1.60beta1
#
DISCID=5c114507
DTITLE=Mark Hauser Quartett Featuring Heriberto - Mexican Boleros Y Tangos Vol. 1
DYEAR=2000
DGENRE=Jazz
TTITLE0=Delirio
TTITLE1=Libertango
TTITLE2=Invierno Parteño
TTITLE3=Chan Chan
TTITLE4=Mañana De Carnaval
TTITLE5=Oblivion
TTITLE6=Endless Night
EXTD=YEAR: 2000
EXTT0=
EXTT1=
EXTT2=
EXTT3=
EXTT4=
EXTT5=
EXTT6=
PLAYORDER=
